<mxfile host="app.diagrams.net" modified="2022-03-26T15:28:16.497Z" agent="5.0 (Macintosh; Intel Mac OS X 10_15_7) AppleWebKit/537.36 (KHTML, like Gecko) Chrome/98.0.4758.109 Safari/537.36" etag="zHE3CyQtlhNe72G9Lb46" version="17.2.4" type="github">
  <diagram id="wDOJWa0sOfvWBEXJ46od" name="Page-1">
    <mxGraphModel dx="1117" dy="610" grid="1" gridSize="10" guides="1" tooltips="1" connect="1" arrows="1" fold="1" page="1" pageScale="1" pageWidth="827" pageHeight="1169" math="0" shadow="0">
      <root>
        <mxCell id="0" />
        <mxCell id="1" parent="0" />
        <mxCell id="JZ91lQcQxe4ch7ZgAQdz-55" value="" style="sketch=0;pointerEvents=1;shadow=0;dashed=0;html=1;strokeColor=none;fillColor=#505050;labelPosition=center;verticalLabelPosition=bottom;verticalAlign=top;outlineConnect=0;align=center;shape=mxgraph.office.concepts.file_key;labelBackgroundColor=#9AC7BF;labelBorderColor=default;fontSize=14;" vertex="1" parent="1">
          <mxGeometry x="460" y="290" width="48" height="53" as="geometry" />
        </mxCell>
        <mxCell id="JZ91lQcQxe4ch7ZgAQdz-56" value="" style="shape=mxgraph.cisco.misc.keys;html=1;pointerEvents=1;dashed=0;fillColor=#036897;strokeColor=#ffffff;strokeWidth=2;verticalLabelPosition=bottom;verticalAlign=top;align=center;outlineConnect=0;labelBackgroundColor=#9AC7BF;labelBorderColor=default;fontSize=14;" vertex="1" parent="1">
          <mxGeometry x="270" y="244" width="74" height="99" as="geometry" />
        </mxCell>
      </root>
    </mxGraphModel>
  </diagram>
</mxfile>
